#!OML:ASF G:\JayActor3\Patient Classification 1\Patient 1\Session 6\male.ASF
:FULLY-SPECIFIED
:DEGREES
1513
root 0.955985 16.5141 -2.11809 181.672 12.4709 -176.891
lowerback -0.76637 1.26113 1.38019
upperback 0.280596 1.67753 -0.937475
thorax 0.784402 0.849513 -1.70834
lowerneck 4.02696 13.2682 13.0469
upperneck -3.91639 18.1289 -11.1529
head 0.394511 9.14716 -5.14807
rclavicle 3.24516e-014 -7.95139e-016
rhumerus -41.0584 -20.6648 -72.3137
rradius 28.435
rwrist 4.92707
rhand -13.6434 -8.50092
rfingers 7.12502
rthumb 12.4729 -38.1087
lclavicle 3.24516e-014 -7.95139e-016
lhumerus -23.5778 4.47601 80.4485
lradius 32.2
lwrist 20.6217
lhand -18.8806 12.2865
lfingers 7.12502
lthumb 7.42037 42.1364
rfemur 0.287058 -7.98982 20.6804
rtibia 49.8412
rfoot 5.24551 -0.984125
rtoes 0.421463
lfemur -13.3891 26.124 -24.6101
ltibia 22.987
lfoot -15.2673 14.0379
ltoes 2.45371
1514
root 0.9525 16.5131 -2.15163 181.57 12.388 -176.956
lowerback -0.590446 1.22409 1.23856
upperback 0.333727 1.63233 -0.95816
thorax 0.734992 0.826645 -1.65429
lowerneck 4.02719 13.2596 13.0497
upperneck -3.98432 18.1146 -11.2186
head 0.379562 9.14151 -5.17089
rclavicle 1.49585e-014 -1.35174e-014
rhumerus -41.0022 -20.5443 -72.4859
rradius 28.8543
rwrist 4.5716
rhand -13.7054 -8.53555
rfingers 7.12502
rthumb 12.4132 -38.147
lclavicle 1.49585e-014 -1.35174e-014
lhumerus -23.08 4.04118 80.5688
lradius 32.2966
lwrist 20.6896
lhand -18.9359 12.2407
lfingers 7.12502
lthumb 7.36704 42.0925
rfemur -0.498549 -8.13488 20.3133
rtibia 51.2387
rfoot 6.33877 -0.979758
rtoes 1.53822
lfemur -13.0528 26.1266 -24.617
ltibia 22.8242
lfoot -15.3025 13.9664
ltoes 2.39086
1515
root 0.949067 16.5119 -2.18446 181.47 12.3131 -177.016
lowerback -0.42039 1.18963 1.10027
upperback 0.391111 1.59013 -0.975506
thorax 0.693512 0.805445 -1.59827
lowerneck 4.02953 13.2538 13.052
upperneck -4.05142 18.1043 -11.2828
head 0.364785 9.13788 -5.1931
rclavicle 4.09993e-014 -1.59028e-014
rhumerus -40.9289 -20.427 -72.6647
rradius 29.2679
rwrist 4.22993
rhand -13.7411 -8.56756
rfingers 7.12502
rthumb 12.3788 -38.1811
lclavicle 4.09993e-014 -1.59028e-014
lhumerus -22.5905 3.62495 80.6858
lradius 32.3776
lwrist 20.7587
lhand -18.9857 12.205
lfingers 7.12502
lthumb 7.31895 42.0585
rfemur -1.2968 -8.23904 19.9618
rtibia 52.607
rfoot 7.45205 -0.953545
rtoes 2.36851
lfemur -12.7249 26.117 -24.6201
ltibia 22.6713
lfoot -15.3454 13.9134
ltoes 2.33655
1516
root 0.945574 16.5105 -2.21684 181.367 12.2418 -177.078
lowerback -0.254153 1.15652 0.962622
upperback 0.453077 1.54943 -0.991314
thorax 0.659057 0.785147 -1.5407
lowerneck 4.03157 13.2501 13.0503
upperneck -4.11477 18.0966 -11.3413
head 0.35056 9.13553 -5.21283
rclavicle -2.26118e-014 -1.19271e-014
rhumerus -40.8378 -20.3108 -72.8488
rradius 29.6686
rwrist 3.90553
rhand -13.7341 -8.58527
rfingers 7.12502
rthumb 12.3855 -38.1984
lclavicle -2.26118e-014 -1.19271e-014
lhumerus -22.1142 3.22519 80.8007
lradius 32.4473
lwrist 20.8288
lhand -19.0302 12.1771
lfingers 7.12502
lthumb 7.276 42.032
rfemur -2.09907 -8.30335 19.6159
rtibia 53.9385
rfoot 8.55893 -0.904844
rtoes 2.99214
lfemur -12.4005 26.1036 -24.6243
ltibia 22.5276
lfoot -15.3909 13.8714
ltoes 2.2563
1517
root 0.94199 16.5088 -2.24888 181.261 12.1669 -177.139
lowerback -0.0922149 1.12239 0.828903
upperback 0.520677 1.50708 -1.00422
thorax 0.632916 0.764179 -1.48205
lowerneck 4.03182 13.2487 13.0417
upperneck -4.17207 18.0918 -11.3914
head 0.337307 9.13449 -5.22873
rclavicle -3.27249e-014 -2.14687e-014
rhumerus -40.7253 -20.1886 -73.0385
rradius 30.0516
rwrist 3.59567
rhand -13.7148 -8.59356
rfingers 7.12502
rthumb 12.4041 -38.2055
lclavicle -3.27249e-014 -2.14687e-014
lhumerus -21.652 2.84773 80.9177
lradius 32.5076
lwrist 20.8943
lhand -19.0838 12.1687
lfingers 7.12502
lthumb 7.22427 42.0254
rfemur -2.89746 -8.33127 19.2797
rtibia 55.2246
rfoot 9.55139 -0.812007
rtoes 3.31278
lfemur -12.0768 26.0868 -24.6251
ltibia 22.3926
lfoot -15.4409 13.8306
ltoes 2.17351
1518
root 0.938247 16.5066 -2.28064 181.15 12.0875 -177.204
lowerback 0.0649565 1.0865 0.694331
upperback 0.592291 1.46219 -1.01515
thorax 0.61358 0.742048 -1.42061
lowerneck 4.03237 13.2485 13.0282
upperneck -4.22234 18.0886 -11.434
head 0.32511 9.13419 -5.24152
rclavicle 5.59082e-015 -9.54166e-015
rhumerus -40.5936 -20.0519 -73.2344
rradius 30.4165
rwrist 3.29905
rhand -13.6737 -8.59503
rfingers 7.12502
rthumb 12.4437 -38.2046
lclavicle 5.59082e-015 -9.54166e-015
lhumerus -21.207 2.49271 81.0359
lradius 32.5567
lwrist 20.967
lhand -19.1483 12.1523
lfingers 7.12502
lthumb 7.16201 42.0111
rfemur -3.68808 -8.34193 18.94
rtibia 56.4575
rfoot 10.3152 -0.650347
rtoes 3.18026
lfemur -11.7553 26.0676 -24.6295
ltibia 22.267
lfoot -15.4946 13.7911
ltoes 2.07727
1519
root 0.934434 16.5038 -2.31187 181.037 11.9979 -177.272
lowerback 0.217944 1.0478 0.558623
upperback 0.667918 1.41342 -1.02528
thorax 0.600731 0.718082 -1.35746
lowerneck 4.03268 13.249 13.0175
upperneck -4.26628 18.0866 -11.4735
head 0.314888 9.13441 -5.25338
rclavicle -6.21699e-014 2.3059e-014
rhumerus -40.4438 -19.9066 -73.4368
rradius 30.7638
rwrist 3.01763
rhand -13.6553 -8.59388
rfingers 7.12502
rthumb 12.4614 -38.2024
lclavicle -6.21699e-014 2.3059e-014
lhumerus -20.7765 2.16081 81.1546
lradius 32.5933
lwrist 21.0351
lhand -19.2212 12.136
lfingers 7.12502
lthumb 7.09163 41.9972
rfemur -4.46669 -8.33394 18.6046
rtibia 57.628
rfoot 10.7316 -0.445016
rtoes 2.70687
lfemur -11.4384 26.048 -24.637
ltibia 22.1518
lfoot -15.5509 13.7459
ltoes 1.97283
1520
root 0.930494 16.5001 -2.34293 180.922 11.8997 -177.346
lowerback 0.360608 1.00763 0.422731
upperback 0.747605 1.36266 -1.03687
thorax 0.598017 0.693245 -1.29528
lowerneck 4.03212 13.2499 13.0141
upperneck -4.30097 18.0858 -11.509
head 0.307911 9.13497 -5.26449
rclavicle 9.59136e-015 -7.15625e-015
rhumerus -40.2807 -19.7635 -73.6407
rradius 31.0936
rwrist 2.75784
rhand -13.6427 -8.59295
rfingers 7.12502
rthumb 12.4736 -38.2007
lclavicle 9.59136e-015 -7.15625e-015
lhumerus -20.3613 1.84867 81.2728
lradius 32.6174
lwrist 21.099
lhand -19.2988 12.122
lfingers 7.12502
lthumb 7.01673 41.9857
rfemur -5.23161 -8.31242 18.2709
rtibia 58.7257
rfoot 10.7313 -0.194368
rtoes 1.9554
lfemur -11.1281 26.0157 -24.6519
ltibia 22.0494
lfoot -15.6104 13.712
ltoes 1.8454
1521
root 0.926725 16.4961 -2.37397 180.807 11.795 -177.42
lowerback 0.490849 0.967582 0.287032
upperback 0.830747 1.31199 -1.04673
thorax 0.605991 0.668525 -1.23102
lowerneck 4.03295 13.2511 13.0159
upperneck -4.32937 18.0859 -11.5423
head 0.302929 9.13591 -5.27543
rclavicle 1.39149e-015 -8.74653e-015
rhumerus -40.1092 -19.6368 -73.8351
rradius 31.4058
rwrist 2.52984
rhand -13.6182 -8.58011
rfingers 7.12502
rthumb 12.4972 -38.1864
lclavicle 1.39149e-015 -8.74653e-015
lhumerus -19.9616 1.55731 81.3935
lradius 32.6281
lwrist 21.1517
lhand -19.3745 12.1047
lfingers 7.12502
lthumb 6.94363 41.9709
rfemur -5.98538 -8.26265 17.9502
rtibia 59.7389
rfoot 10.306 0.0855369
rtoes 1.14918
lfemur -10.8276 25.9553 -24.6694
ltibia 21.9636
lfoot -15.6761 13.7061
ltoes 1.70564
1522
root 0.923184 16.4917 -2.40503 180.693 11.6857 -177.493
lowerback 0.609676 0.928356 0.154463
upperback 0.918332 1.2625 -1.05633
thorax 0.625225 0.644479 -1.16786
lowerneck 4.03197 13.2542 13.0235
upperneck -4.35067 18.0889 -11.572
head 0.300808 9.13805 -5.28542
rclavicle -2.73329e-016 -2.14687e-014
rhumerus -39.9302 -19.528 -74.0222
rradius 31.7014
rwrist 2.32514
rhand -13.5901 -8.55943
rfingers 7.12502
rthumb 12.5243 -38.1641
lclavicle -2.73329e-016 -2.14687e-014
lhumerus -19.5778 1.27774 81.5141
lradius 32.6287
lwrist 21.1937
lhand -19.4308 12.0906
lfingers 7.12502
lthumb 6.88934 41.9585
rfemur -6.72291 -8.19265 17.6423
rtibia 60.6546
rfoot 9.49965 0.408749
rtoes 0.365107
lfemur -10.5342 25.8691 -24.6868
ltibia 21.8927
lfoot -15.7482 13.7283
ltoes 1.55642
1523
root 0.920009 16.4866 -2.43601 180.579 11.5693 -177.556
lowerback 0.719518 0.889633 0.030979
upperback 1.01022 1.21373 -1.06199
thorax 0.654245 0.620855 -1.10546
lowerneck 4.0293 13.2587 13.0347
upperneck -4.36572 18.0941 -11.598
head 0.300996 9.14108 -5.29428
rclavicle 2.62147e-014 1.82882e-014
rhumerus -39.748 -19.441 -74.1982
rradius 31.9832
rwrist 2.14231
rhand -13.534 -8.53233
rfingers 7.12502
rthumb 12.5784 -38.1337
lclavicle 2.62147e-014 1.82882e-014
lhumerus -19.2073 1.02075 81.6383
lradius 32.6178
lwrist 21.2163
lhand -19.4631 12.0959
lfingers 7.12502
lthumb 6.85811 41.9648
rfemur -7.44137 -8.10221 17.3605
rtibia 61.4589
rfoot 8.37948 0.791868
rtoes -0.416721
lfemur -10.2469 25.7511 -24.695
ltibia 21.8353
lfoot -15.8279 13.7797
ltoes 1.41941
1524
root 0.917023 16.4815 -2.46665 180.461 11.4411 -177.619
lowerback 0.833034 0.850832 -0.0922819
upperback 1.10366 1.16493 -1.06627
thorax 0.682978 0.597219 -1.04174
lowerneck 4.02656 13.2632 13.0466
upperneck -4.37913 18.0991 -11.6204
head 0.301379 9.14395 -5.30217
rclavicle 5.64051e-015 -1.74931e-014
rhumerus -39.5698 -19.37 -74.3635
rradius 32.2544
rwrist 1.96942
rhand -13.4549 -8.4873
rfingers 7.12502
rthumb 12.6547 -38.0839
lclavicle 5.64051e-015 -1.74931e-014
lhumerus -18.8539 0.778145 81.7677
lradius 32.5973
lwrist 21.225
lhand -19.4768 12.1219
lfingers 7.12502
lthumb 6.84489 41.9912
rfemur -8.1427 -7.99602 17.0908
rtibia 62.1458
rfoot 7.04866 1.22944
rtoes -1.23747
lfemur -9.9634 25.5944 -24.7047
ltibia 21.7905
lfoot -15.9147 13.8626
ltoes 1.28934
1525
root 0.914159 16.4765 -2.49673 180.345 11.291 -177.681
lowerback 0.949447 0.808517 -0.214111
upperback 1.19636 1.11143 -1.06839
thorax 0.709459 0.571196 -0.976554
lowerneck 4.02398 13.2672 13.0625
upperneck -4.3914 18.1039 -11.6444
head 0.302536 9.14666 -5.31097
rclavicle -1.49089e-016 -8.74653e-015
rhumerus -39.3977 -19.3057 -74.5232
rradius 32.52
rwrist 1.80683
rhand -13.3935 -8.44483
rfingers 7.12502
rthumb 12.7138 -38.0378
lclavicle -1.49089e-016 -8.74653e-015
lhumerus -18.5165 0.558637 81.9049
lradius 32.5632
lwrist 21.2118
lhand -19.4716 12.1603
lfingers 7.12502
lthumb 6.84996 42.0295
rfemur -8.83104 -7.87834 16.8379
rtibia 62.7088
rfoot 5.54446 1.68038
rtoes -2.32144
lfemur -9.69089 25.3885 -24.7188
ltibia 21.7576
lfoot -16.0085 13.974
ltoes 1.18077
1526
root 0.911448 16.4717 -2.5262 180.236 11.1209 -177.736
lowerback 1.07022 0.763226 -0.331693
upperback 1.28494 1.05369 -1.06483
thorax 0.729431 0.542959 -0.907942
lowerneck 4.02311 13.2704 13.0732
upperneck -4.40433 18.1074 -11.6638
head 0.302183 9.14878 -5.31809
rclavicle 2.50966e-014 -1.35174e-014
rhumerus -39.235 -19.2276 -74.6812
rradius 32.7832
rwrist 1.64185
rhand -13.3427 -8.41706
rfingers 7.12502
rthumb 12.7629 -38.007
lclavicle 2.50966e-014 -1.35174e-014
lhumerus -18.1993 0.35727 82.0536
lradius 32.5146
lwrist 21.199
lhand -19.4677 12.1909
lfingers 7.12502
lthumb 6.8537 42.0599
rfemur -9.51137 -7.74854 16.6065
rtibia 63.1481
rfoot 3.88025 2.07789
rtoes -3.78008
lfemur -9.43252 25.1326 -24.7333
ltibia 21.7343
lfoot -16.1121 14.1115
ltoes 1.11581
